Coordinates
version=1
nRows=32
nColumns=22
inDegrees=yes

Units are S.I. units (second, meters, Newtons, ...)
If the header above contains a line with 'inDegrees', this indicates whether rotational values are in degrees (yes) or radians (no).

endheader
time	pelvis_tilt	pelvis_list	pelvis_rotation	pelvis_tx	pelvis_ty	pelvis_tz	hip_flexion_r	hip_adduction_r	hip_rotation_r	knee_angle_r	ankle_angle_r	subtalar_angle_r	hip_flexion_l	hip_adduction_l	hip_rotation_l	knee_angle_l	ankle_angle_l	subtalar_angle_l	lumbar_extension	lumbar_bending	lumbar_rotation
      0.01000000	     -1.26021865	     -7.75370452	      6.12557151	      1.16310639	      0.96393152	     -0.34117812	      2.66701634	      8.46788963	     -5.08624672	    -14.38289436	     10.37164412	      0.41019382	      2.21933102	     -7.66039919	      6.44095033	    -10.25885998	     10.82769801	     -5.25431148	      2.31717702	      6.79053772	     -6.77356072
      0.02000000	     -1.33459314	     -7.67075752	      6.18168040	      1.16289415	      0.96395465	     -0.34132717	      2.77313268	      8.36052502	     -5.13281803	    -14.42096001	     10.37609204	      0.41696406	      2.19527568	     -7.57598493	      6.33611726	    -10.02579849	     10.70159428	     -5.21890352	      2.37541720	      6.69736252	     -6.80795955
      0.03000000	     -1.42210068	     -7.57894318	      6.24069762	      1.16264782	      0.96397415	     -0.34149444	      2.90190046	      8.23875153	     -5.19450786	    -14.47274779	     10.38737929	      0.43064333	      2.17406618	     -7.48206000	      6.20017281	     -9.76610288	     10.54820459	     -5.16460617	      2.44311557	      6.59515418	     -6.83690632
      0.04000000	     -1.51277547	     -7.48214738	      6.30431350	      1.16239608	      0.96399236	     -0.34168608	      3.03555752	      8.10925678	     -5.25956109	    -14.52864175	     10.40244527	      0.44913511	      2.15259615	     -7.38082763	      6.06065254	     -9.49882750	     10.39157078	     -5.09820634	      2.51378106	      6.49056897	     -6.86293448
      0.05000000	     -1.59912907	     -7.38795627	      6.36607831	      1.16215927	      0.96400641	     -0.34188066	      3.16242081	      7.98230805	     -5.32571532	    -14.58245914	     10.42043739	      0.47093754	      2.13137232	     -7.28092360	      5.92870693	     -9.24396303	     10.24472503	     -5.02442448	      2.58033653	      6.39116489	     -6.88309359
      0.06000000	     -1.66695460	     -7.31877938	      6.42482234	      1.16196164	      0.96402727	     -0.34206261	      3.26496561	      7.88469692	     -5.39758350	    -14.62568133	     10.41659598	      0.48660293	      2.10475042	     -7.20833673	      5.81668845	     -9.01801104	     10.10568304	     -4.96594753	      2.63176461	      6.32351175	     -6.89123388
      0.07000000	     -1.72439379	     -7.24365184	      6.47469014	      1.16181207	      0.96403919	     -0.34223339	      3.34893383	      7.78403665	     -5.45052997	    -14.66532597	     10.43677183	      0.50108507	      2.08126753	     -7.12605878	      5.73168048	     -8.83247266	     10.00329559	     -4.90631028	      2.67441526	      6.25170623	     -6.89438873
      0.08000000	     -1.76368623	     -7.18552852	      6.51527844	      1.16171386	      0.96404670	     -0.34237780	      3.40690809	      7.70595834	     -5.49353031	    -14.69597257	     10.45692286	      0.51562205	      2.06195387	     -7.06145575	      5.67282291	     -8.69934896	      9.93509053	     -4.85084161	      2.70247287	      6.20229264	     -6.88897652
      0.09000000	     -1.78525757	     -7.16412243	      6.54964973	      1.16168103	      0.96404571	     -0.34249349	      3.42786530	      7.67354106	     -5.52268891	    -14.69194509	     10.46465359	      0.52065368	      2.05093663	     -7.03695315	      5.62872172	     -8.62021284	      9.92572086	     -4.83205152	      2.72146954	      6.19686737	     -6.89079727
      0.10000000	     -1.79584483	     -7.12839823	      6.57201953	      1.16168763	      0.96405165	     -0.34259090	      3.44472771	      7.62582690	     -5.56280443	    -14.71150086	     10.48118840	      0.52840491	      2.03110296	     -6.99572815	      5.62333117	     -8.56183646	      9.88700854	     -4.79331996	      2.72814772	      6.17717633	     -6.85706946
      0.11000000	     -1.79670810	     -7.12299704	      6.58910156	      1.16170181	      0.96404816	     -0.34265626	      3.44477357	      7.61767052	     -5.55988501	    -14.71298146	     10.48253824	      0.52846486	      2.03196094	     -6.98733746	      5.62134469	     -8.55794873	      9.88738321	     -4.79160138	      2.72631147	      6.19395127	     -6.85113654
      0.12000000	     -1.79090800	     -7.11083316	      6.60161500	      1.16175082	      0.96404483	     -0.34270530	      3.43178421	      7.60280013	     -5.57810175	    -14.70938790	     10.50025690	      0.52993467	      2.02731150	     -6.97199455	      5.64271031	     -8.56607779	      9.89193026	     -4.77828992	      2.71771367	      6.20217333	     -6.81463238
      0.13000000	     -1.79023355	     -7.10548285	      6.60682565	      1.16183656	      0.96403403	     -0.34274081	      3.42602199	      7.59624999	     -5.57829746	    -14.71256510	     10.50205782	      0.52988917	      2.02378239	     -6.96407253	      5.64575864	     -8.57019242	      9.89305589	     -4.77660748	      2.72134879	      6.21983346	     -6.81067271
      0.14000000	     -1.76662447	     -7.09874079	      6.62006501	      1.16190496	      0.96403894	     -0.34277295	      3.39329507	      7.59051232	     -5.59896854	    -14.70886698	     10.52743012	      0.53096178	      2.01402678	     -6.95622813	      5.68792114	     -8.60710949	      9.91521699	     -4.76263568	      2.69278975	      6.23666015	     -6.77597556
      0.15000000	     -1.73890145	     -7.09680444	      6.63209175	      1.16199600	      0.96404799	     -0.34280214	      3.35276311	      7.59111319	     -5.61708630	    -14.70030098	     10.54502923	      0.53325169	      1.99555498	     -6.95470574	      5.71821391	     -8.63814536	      9.94054120	     -4.74858089	      2.66118639	      6.26214725	     -6.77513337
      0.16000000	     -1.74023350	     -7.09145313	      6.62695223	      1.16210094	      0.96403279	     -0.34281369	      3.34584802	      7.58525387	     -5.61887329	    -14.70028232	     10.54572359	      0.53311850	      1.99198429	     -6.94778095	      5.72257524	     -8.64445171	      9.94089282	     -4.74773496	      2.66257433	      6.28313073	     -6.77590695
      0.17000000	     -1.69531121	     -7.09952970	      6.64764744	      1.16218950	      0.96405996	     -0.34282930	      3.27877204	      7.60065288	     -5.64337385	    -14.67194631	     10.55872392	      0.53430304	      1.96547838	     -6.96061404	      5.76021357	     -8.68871065	      9.97725212	     -4.74382214	      2.60702536	      6.32059529	     -6.79639603
      0.18000000	     -1.68660368	     -7.09556940	      6.64452465	      1.16229846	      0.96405731	     -0.34281949	      3.25887081	      7.59958551	     -5.64583999	    -14.66722544	     10.56026742	      0.53367270	      1.96044211	     -6.95773425	      5.77983257	     -8.71397583	      9.97009937	     -4.74422738	      2.59437393	      6.34161507	     -6.78758383
      0.19000000	     -1.67281578	     -7.09146879	      6.64562390	      1.16239589	      0.96405820	     -0.34280844	      3.23203559	      7.59925077	     -5.64714965	    -14.65821648	     10.56811314	      0.53135374	      1.95677263	     -6.95488673	      5.79751475	     -8.74838275	      9.97296878	     -4.75136101	      2.57125426	      6.36377732	     -6.79591232
      0.20000000	     -1.67648918	     -7.08501228	      6.63451136	      1.16252343	      0.96404326	     -0.34278779	      3.22518426	      7.59339710	     -5.64958210	    -14.65678007	     10.56932931	      0.53078263	      1.95390269	     -6.94917401	      5.80273908	     -8.75736160	      9.97258187	     -4.75235530	      2.56975412	      6.38343737	     -6.79994072
      0.21000000	     -1.65757630	     -7.07953315	      6.64246084	      1.16261819	      0.96404894	     -0.34276575	      3.19063855	      7.59422492	     -5.64912842	    -14.64379595	     10.58254440	      0.52640266	      1.95772643	     -6.94563841	      5.82510450	     -8.81272437	      9.97498560	     -4.76815474	      2.53705488	      6.40230052	     -6.81836435
      0.22000000	     -1.66228551	     -7.07283272	      6.63012936	      1.16275401	      0.96403660	     -0.34271796	      3.18468367	      7.58973669	     -5.65227712	    -14.64138694	     10.58369815	      0.52576654	      1.95469184	     -6.94107587	      5.83028184	     -8.82088751	      9.97540298	     -4.76988986	      2.53464997	      6.41879074	     -6.82474652
      0.23000000	     -1.64671551	     -7.06383540	      6.64500922	      1.16286114	      0.96404401	     -0.34268543	      3.15121273	      7.58778214	     -5.65117204	    -14.62563081	     10.59653014	      0.51985135	      1.95740338	     -6.93385409	      5.85737162	     -8.86700040	      9.99096170	     -4.79055671	      2.50594358	      6.43176837	     -6.86512204
      0.24000000	     -1.65298728	     -7.05716075	      6.63490900	      1.16299713	      0.96403770	     -0.34262183	      3.14716547	      7.58414940	     -5.65456979	    -14.62337490	     10.59713787	      0.51922113	      1.95474032	     -6.92844832	      5.86332532	     -8.87037631	      9.99410272	     -4.79164427	      2.50340033	      6.44616369	     -6.87161489
      0.25000000	     -1.65523743	     -7.04200204	      6.64650959	      1.16312123	      0.96403364	     -0.34257096	      3.13586612	      7.57402616	     -5.65197288	    -14.61633568	     10.60296812	      0.51465235	      1.94832687	     -6.91204383	      5.91120509	     -8.86898551	     10.05038502	     -4.78923598	      2.49537475	      6.44748171	     -6.91499999
      0.26000000	     -1.66467651	     -7.02650235	      6.65224850	      1.16324674	      0.96403165	     -0.34250270	      3.13547731	      7.56205948	     -5.65718013	    -14.61455793	     10.60697119	      0.51136710	      1.94049872	     -6.89324597	      5.96686887	     -8.85295793	     10.11536242	     -4.76057629	      2.49510682	      6.44642813	     -6.94434563
      0.27000000	     -1.68331414	     -7.00461492	      6.69779965	      1.16333708	      0.96402357	     -0.34248193	      3.15509267	      7.53664302	     -5.72634215	    -14.62639552	     10.62641078	      0.50398414	      1.95849021	     -6.86112567	      6.07330707	     -8.84761351	     10.22209389	     -4.43780307	      2.50458459	      6.43414278	     -7.02727758
      0.28000000	     -1.71671749	     -6.97816004	      6.69144708	      1.16342785	      0.96401213	     -0.34238219	      3.18857034	      7.51149797	     -5.70499244	    -14.64001811	     10.64140042	      0.50944408	      1.97073325	     -6.82286201	      6.13569218	     -8.82250122	     10.39582099	     -4.04287675	      2.52341187	      6.41559370	     -7.03782517
      0.29000000	     -1.74722739	     -6.95051519	      6.69918401	      1.16351847	      0.96401443	     -0.34229015	      3.21883136	      7.48292955	     -5.72014834	    -14.64972876	     10.62907098	      0.52211784	      1.97312369	     -6.78090664	      6.23748899	     -8.78010270	     10.59324751	     -3.63214419	      2.53992562	      6.39256402	     -7.06040615
      0.30000000	     -1.77543628	     -6.91135110	      6.71485572	      1.16358182	      0.96401469	     -0.34220148	      3.25565861	      7.44224863	     -5.73098392	    -14.67856827	     10.66606184	      0.52856611	      1.97290355	     -6.72345083	      6.36668673	     -8.73451222	     10.81616957	     -3.20784126	      2.54877926	      6.35491259	     -7.10765850
      0.31000000	     -1.81331949	     -6.88157068	      6.71379598	      1.16364896	      0.96401466	     -0.34208330	      3.29780572	      7.41196171	     -5.72424035	    -14.69464330	     10.66065024	      0.54456799	      1.98027885	     -6.67483465	      6.48045798	     -8.68709809	     11.07264758	     -2.69008509	      2.56889369	      6.32597249	     -7.11500698
      0.32000000	     -1.84199122	     -6.84130615	      6.71949949	      1.16369726	      0.96402095	     -0.34194717	      3.33791274	      7.37202396	     -5.73238507	    -14.72507052	     10.68569184	      0.55463392	      1.97800020	     -6.61614267	      6.61173106	     -8.63789607	     11.32544668	     -2.21132039	      2.57522277	      6.28070291	     -7.15126877
